<svg xmlns="http://www.w3.org/2000/svg" viewBox="0 0 623.45 132.04"><defs><style>.cls-1,.cls-2,.cls-3{fill:none;stroke-miterlimit:10;}.cls-1,.cls-2{stroke:#fff;}.cls-2{stroke-width:0.5px;}.cls-3{stroke:#9a2921;stroke-linecap:round;stroke-width:3px;}.cls-4{font-size:35px;}.cls-4,.cls-6{fill:#fff;font-family:HelveticaNeue-Medium, Helvetica Neue;font-weight:500;}.cls-5{letter-spacing:-0.02em;}.cls-6{font-size:15px;}.cls-7{letter-spacing:-0.09em;}</style></defs><g id="Calque_2" data-name="Calque 2"><g id="Calque_1-2" data-name="Calque 1"><path class="cls-1" d="M243.36,84H180.28A9.08,9.08,0,0,1,171,75.13V37.87A9.09,9.09,0,0,1,180.28,29H443.72A9.09,9.09,0,0,1,453,37.87V75.13A9.08,9.08,0,0,1,443.72,84H380.64"/><path class="cls-2" d="M2.5,1.5A167.4,167.4,0,0,0,72.93,64.08a170.54,170.54,0,0,0,98.85,14.75"/><line class="cls-3" x1="2" y1="130.5" x2="1.5" y2="1.5"/><text class="cls-4" transform="translate(203.37 67.98)">La Passe<tspan class="cls-5" x="147.87" y="0">r</tspan><tspan x="159.56" y="0">elle</tspan></text><text class="cls-6" transform="translate(263.31 89.34)">RES<tspan class="cls-7" x="29.73" y="0">T</tspan><tspan x="37.24" y="0">AURANT</tspan></text><path class="cls-2" d="M621.84,1.28a167.4,167.4,0,0,1-70.43,62.58,170.54,170.54,0,0,1-98.85,14.75"/><line class="cls-3" x1="621.45" y1="130.54" x2="621.95" y2="1.54"/></g></g></svg>